PathFileType	4	(X/Y/Z)	C:\Users\WrightLab\Desktop\Jo\P3_32.trc
DataRate	CameraRate	NumFrames	NumMarkers	Units	OrigDataRate	OrigDataStartFrame	OrigNumFrames
100.00	100.00	       8	19	mm	100.00	588	       671
Frame#	Time	Headset_Front			Headset_Back			Headset_Left			Headset_Right			Left_Shoulder			Right_Shoulder			Sternum			C7			Left Elbow			Right Elbow			Left Wrist			Right Wrist			Left ASIS			Right ASIS			S2			Left Knee			Right Knee			Left Ankle			Right Ankle			
		X1	Y1	Z1	X2	Y2	Z2	X3	Y3	Z3	X4	Y4	Z4	X5	Y5	Z5	X6	Y6	Z6	X7	Y7	Z7	X8	Y8	Z8	X9	Y9	Z9	X10	Y10	Z10	X11	Y11	Z11	X12	Y12	Z12	X13	Y13	Z13	X14	Y14	Z14	X15	Y15	Z15	X16	Y16	Z16	X17	Y17	Z17	X18	Y18	Z18	X19	Y19	Z19	

588	5.870	43.37223	1573.55286	2203.08301	221.86392	1625.80908	2105.07520							331.88171	1374.77612	2072.85913	-12.04402	1396.11609	1955.38025	116.31562	1277.02759	2148.18945				381.60400	1041.61157	2104.27173	-85.48756	989.05084	2226.43994	338.14850	873.11627	2214.85425	-69.76987	827.85602	1935.89270	213.11569	915.44611	2165.40771				171.59210	980.86053	1922.46643	235.68594	525.59161	2280.23169	40.75515	481.77817	2075.05176	279.94769	215.09500	2162.58276	94.39436	154.10931	2024.57214	
589	5.880	40.32736	1573.57214	2209.96216	219.99294	1625.60669	2112.38354							330.22995	1374.78369	2082.45581	-12.73744	1396.19397	1961.94836	114.04930	1276.26453	2154.55811				379.84906	1040.99072	2111.86377	-99.95856	978.42346	2206.36328	336.22906	873.36505	2224.39111	-70.58575	828.81256	1941.97461	210.98706	915.66992	2173.31348				171.96634	981.54462	1929.95984	231.19833	526.97162	2289.32568	40.26990	481.15759	2077.66699	277.20529	209.91679	2188.57886	94.39195	154.37318	2025.03931	
590	5.890	38.19489	1573.25403	2216.11865	218.60103	1625.30725	2120.29053							328.89334	1374.42163	2091.73975	-12.39501	1396.71387	1966.56262	112.07366	1276.61011	2162.20288				378.78595	1041.02954	2122.33374	-100.77419	978.59192	2210.54370	333.77505	873.28448	2233.98682	-71.57736	829.08160	1946.81604	208.20146	915.08020	2179.81055	-105.63535	1059.68774	1919.63879	172.51329	982.02637	1935.99524	226.65874	526.55933	2295.78735	39.13934	480.88260	2080.10815	272.72043	205.08234	2215.77563	94.08548	154.41257	2025.89392	
591	5.900	36.00154	1573.04248	2222.33960	217.09286	1625.28467	2128.79224							327.44006	1374.04761	2100.30151	-12.85359	1396.04834	1972.35071	109.70882	1275.50793	2167.68408				377.21786	1041.02710	2130.92725	-102.17347	978.70514	2215.62646	331.95032	872.78864	2241.92114	-72.28239	830.54041	1953.89880	203.26378	921.18341	2195.53613	-106.08965	1059.73865	1924.85681				223.29820	526.86609	2304.12769	38.60165	480.76077	2084.23315	266.97934	202.81709	2244.45532	94.09882	154.51598	2026.68079	
592	5.910	33.43570	1572.47217	2228.38354	215.36565	1624.14746	2135.60107							325.80344	1373.38513	2109.40088	-12.95365	1395.95056	1978.74927	107.67796	1274.68640	2173.84619				376.17587	1040.20557	2140.81299	-103.78705	978.24524	2219.58691	330.07947	873.05682	2252.07739	-73.08812	830.25519	1958.12805	202.39713	920.74194	2203.26904	-106.52168	1059.59619	1930.35962				219.37161	526.74359	2311.61377	38.57584	481.24005	2087.63989	262.75003	198.77953	2267.92896	94.03468	154.71475	2027.42371	
593	5.920	30.60416	1572.07581	2235.06592	213.82607	1623.71692	2144.59814							324.37799	1372.63220	2118.58398	-12.94954	1395.09558	1983.48486	105.64195	1274.58264	2181.18408				374.50638	1040.19043	2149.78931	-104.86919	978.17584	2222.81274	328.44556	873.01495	2261.51660	-74.34862	831.23273	1963.95605	203.29059	920.78290	2213.69360	-106.66344	1059.13416	1935.20532				215.54689	526.35065	2319.30029	38.01069	480.26245	2090.86499	256.92728	198.20961	2295.60327	94.61036	155.48672	2026.21997	
594	5.930	28.30401	1571.48950	2240.81616	212.01677	1623.32776	2152.97534							322.64365	1372.46387	2128.78467	-12.90892	1394.96326	1990.09607	103.45692	1273.09619	2186.81201				373.78458	1040.13257	2159.81567	-106.29768	977.22742	2226.44482	326.49387	871.73193	2269.67773	-75.30677	831.85242	1970.75110	202.74460	920.38983	2221.94849							212.39549	526.35266	2326.57446	36.56126	480.16110	2094.56421	250.72220	197.98410	2320.94653	94.60663	155.74278	2026.79724	
595	5.940	25.97271	1570.68567	2246.73315	209.92534	1622.86670	2160.30054							321.19083	1371.93140	2138.46631	-12.85801	1394.82373	1994.79944	101.17301	1272.49438	2193.87939				371.25653	1038.47217	2168.39844	-107.81998	977.21527	2230.93286	324.50583	870.92944	2278.61499	-76.09534	831.16107	1974.54895	202.31244	920.43304	2230.73096							208.34007	526.82434	2334.79712	35.88219	479.18359	2096.15234	244.62610	194.90056	2341.28003	94.33099	155.88701	2027.43433	
